<?xml version="1.0" encoding="UTF-8" standalone="no"?>
<!DOCTYPE svg PUBLIC "-//W3C//DTD SVG 1.1//EN" "http://www.w3.org/Graphics/SVG/1.1/DTD/svg11.dtd">
<svg width="48px" height="48px" version="1.1" xmlns="http://www.w3.org/2000/svg" xmlns:xlink="http://www.w3.org/1999/xlink" xml:space="preserve" xmlns:serif="http://www.serif.com/" style="fill-rule:evenodd;clip-rule:evenodd;stroke-linecap:round;stroke-linejoin:round;">
    <g id="Aspis">
        <circle cx="23.99" cy="23.99" r="16.826" style="fill:none;stroke:black;stroke-width:3.36px;"/>
        <circle cx="20.186" cy="23.99" r="10.144" style="fill:none;stroke:black;stroke-width:2.03px;"/>
        <circle cx="27.723" cy="23.99" r="10.144" style="fill:none;stroke:black;stroke-width:2.03px;"/>
        <path d="M19.703,21.71L18.667,20.727L18.666,20.73C17.883,20.017 16.842,19.582 15.7,19.582C13.267,19.582 11.292,21.557 11.292,23.99C11.292,26.424 13.267,28.399 15.7,28.399C16.857,28.399 17.91,27.953 18.696,27.223L18.698,27.227C19.677,26.362 20.827,25.349 21.98,24.335L23.062,24.849L23.525,25.639C22.228,26.78 20.92,27.932 19.843,28.885C19.809,28.915 19.773,28.942 19.737,28.967C18.635,29.862 17.23,30.399 15.7,30.399C12.163,30.399 9.292,27.527 9.292,23.99C9.292,20.454 12.163,17.582 15.7,17.582C17.227,17.582 18.629,18.117 19.73,19.009L19.726,19.014C19.773,19.043 19.818,19.076 19.861,19.114L21.184,20.339L21.188,20.335L23.09,20.76L24.532,23.21L24.443,23.635C24.443,23.635 23.19,23.139 21.87,22.572C22.005,23.214 22.899,24.328 22.899,24.328L20.595,23.184L19.703,21.71ZM22.743,21.342L21.848,21.163L22.217,21.745L23.147,22.067L22.743,21.342ZM23.888,25.312C23.826,25.208 22.955,23.742 22.715,23.377C23.606,23.749 24.291,24.02 24.291,24.02L24.76,24.135L24.911,23.542L29.278,27.39C30.041,28.02 31.019,28.399 32.084,28.399C34.518,28.399 36.493,26.424 36.493,23.99C36.493,21.557 34.518,19.582 32.084,19.582C31.022,19.582 30.048,19.958 29.286,20.585C28.913,20.911 27.553,22.091 25.774,23.652L24.936,22.949L24.444,22.17C26.484,20.38 28.061,18.999 28.061,18.999C28.099,18.966 28.14,18.935 28.181,18.909C29.262,18.077 30.616,17.582 32.084,17.582C35.621,17.582 38.493,20.454 38.493,23.99C38.493,27.527 35.621,30.399 32.084,30.399C30.56,30.399 29.159,29.865 28.058,28.975L28.061,28.972C28.026,28.948 27.991,28.921 27.958,28.892L23.888,25.312Z"/>
    </g>
</svg>
