<?xml version="1.0" encoding="UTF-8" standalone="no"?>
<!DOCTYPE svg PUBLIC "-//W3C//DTD SVG 1.1//EN" "http://www.w3.org/Graphics/SVG/1.1/DTD/svg11.dtd">
<svg width="48px" height="48px" version="1.1" xmlns="http://www.w3.org/2000/svg" xmlns:xlink="http://www.w3.org/1999/xlink" xml:space="preserve" xmlns:serif="http://www.serif.com/" style="fill-rule:evenodd;clip-rule:evenodd;stroke-linecap:round;stroke-linejoin:round;stroke-miterlimit:1.5;">
    <g id="Cult-of-the-Unknown" serif:id="Cult of the Unknown">
        <path d="M7.697,23.717C8.046,23.861 8.528,24.254 9.111,25.219C9.998,26.686 10.94,28.239 12.354,29.929C13.753,31.601 16.472,33.86 18.839,34.912C17.337,35.364 13.036,33.718 10.272,31.465C7.507,29.212 5.871,27.007 4.571,26.072C3.214,25.096 0.544,23.717 0.544,23.717L0.546,23.716C0.546,23.716 3.217,22.337 4.574,21.361C5.873,20.426 7.509,18.22 10.274,15.968C13.039,13.715 17.339,12.068 18.841,12.52C16.475,13.573 13.756,15.831 12.356,17.504C10.942,19.193 10.001,20.746 9.113,22.214C8.529,23.18 8.046,23.573 7.697,23.717Z"/>
        <path d="M40.379,23.717C40.03,23.861 39.548,24.254 38.965,25.219C38.077,26.686 37.136,28.239 35.722,29.929C34.323,31.601 31.604,33.86 29.237,34.912C30.739,35.364 35.04,33.718 37.804,31.465C40.569,29.212 42.205,27.007 43.505,26.072C44.862,25.096 47.532,23.717 47.532,23.717L47.53,23.716C47.53,23.716 44.859,22.337 43.502,21.361C42.203,20.426 40.567,18.22 37.802,15.968C35.037,13.715 30.737,12.068 29.235,12.52C31.601,13.573 34.32,15.831 35.72,17.504C37.133,19.193 38.075,20.746 38.963,22.214C39.547,23.18 40.03,23.573 40.379,23.717Z"/>
        <path d="M23.788,38.703L23.788,45.736" style="fill:none;"/>
        <path d="M23.788,2.216L23.788,9.248" style="fill:none;"/>
        <path d="M21.788,12.429L21.788,8.902C21.788,4.164 22.685,0.318 23.788,0.318C24.892,0.318 25.788,4.164 25.788,8.902L25.788,12.429L21.788,12.429ZM25.788,34.957L25.788,39.085C25.788,43.822 24.892,47.668 23.788,47.668C22.685,47.668 21.788,43.822 21.788,39.085L21.788,34.957L25.788,34.957Z"/>
        <path d="M36.618,36.248L39.512,39.017" style="fill:none;stroke:black;stroke-width:2px;"/>
        <path d="M8.064,8.934L10.948,11.693" style="fill:none;stroke:black;stroke-width:2px;"/>
        <path d="M36.342,11.422L39.175,8.589" style="fill:none;stroke:black;stroke-width:2px;"/>
        <path d="M8.402,39.362L11.224,36.54" style="fill:none;stroke:black;stroke-width:2px;"/>
        <path d="M23.029,22.029C23.319,21.943 23.544,21.695 23.835,21.608C23.908,21.586 26.242,22.284 26.294,24.597C26.351,27.113 23.087,28.971 19.661,26.527C16.033,23.94 16.919,19.36 19.449,17.218C23.234,14.014 28.065,15.887 28.135,15.985C28.309,16.231 28.384,16.537 28.559,16.783C28.279,16.895 28.042,17.096 27.763,17.208C27.756,17.211 25.498,16.598 23.235,17.789C22.985,17.92 21.722,18.585 20.745,20.283C20.27,21.109 19.83,22.238 20.931,23.901C21.635,24.965 23.497,26.115 24.376,25.005C24.977,24.247 24.323,23.17 23.547,22.859C23.514,22.846 23.465,22.856 23.447,22.826C23.207,22.442 23.268,22.412 23.029,22.029Z"/>
        <path d="M22.654,24.915C22.569,24.604 22.344,24.344 22.26,24.034C22.228,23.914 23.161,21.203 25.842,21.294C28.534,21.387 30.539,24.87 27.902,28.72C25.648,32.012 21.536,32.683 17.937,29.965C17.857,29.904 16.622,28.863 15.819,27.21C13.968,23.399 15.214,19.854 15.426,19.245C15.453,19.168 15.444,19.065 15.509,19.016C15.873,18.744 15.938,18.862 16.305,18.588C16.413,18.869 16.627,19.101 16.734,19.382C16.736,19.386 15.941,22.233 17.446,25.047C17.605,25.343 18.431,26.887 20.413,28.016C20.841,28.26 22.778,29.495 25.215,27.605C26.277,26.782 27.747,24.569 26.348,23.332C25.427,22.517 23.941,23.222 23.496,24.371C23.467,24.445 23.433,24.411 22.654,24.915Z"/>
        <path d="M26.698,23.472C26.616,23.764 26.698,24.086 26.616,24.378C26.569,24.544 24.539,26.011 22.769,24.679C20.781,23.184 21.385,19.765 24.942,18.43C28.85,16.963 31.977,20.055 32.362,23.104C32.948,27.76 28.969,30.614 28.859,30.618C28.558,30.629 28.26,30.531 27.959,30.542C28.014,30.246 27.978,29.938 28.033,29.643C28.034,29.638 29.644,28.167 29.831,25.798C29.851,25.539 29.953,24.251 29.118,22.63C28.835,22.081 28.227,20.936 26.196,20.987C25.026,21.016 23.256,21.887 23.71,23.071C24.019,23.874 25.144,23.862 25.726,23.452C25.753,23.434 25.77,23.391 25.802,23.391C26.255,23.4 26.247,23.463 26.698,23.472Z"/>
    </g>
</svg>
