<?xml version="1.0" encoding="UTF-8" standalone="no"?>
<!DOCTYPE svg PUBLIC "-//W3C//DTD SVG 1.1//EN" "http://www.w3.org/Graphics/SVG/1.1/DTD/svg11.dtd">
<svg width="48px" height="48px" version="1.1" xmlns="http://www.w3.org/2000/svg" xmlns:xlink="http://www.w3.org/1999/xlink" xml:space="preserve" xmlns:serif="http://www.serif.com/" style="fill-rule:evenodd;clip-rule:evenodd;stroke-linecap:round;stroke-linejoin:round;">
    <g>
        <path d="M6.488,27.687L0.135,23.99L6.488,20.294C6.298,21.499 6.199,22.733 6.199,23.99C6.199,25.248 6.298,26.482 6.488,27.687ZM20.294,6.488L23.99,0.135L27.687,6.488C26.482,6.298 25.248,6.199 23.99,6.199C22.733,6.199 21.499,6.298 20.294,6.488ZM41.493,20.294L47.846,23.99L41.493,27.687C41.683,26.482 41.782,25.248 41.782,23.99C41.782,22.733 41.683,21.499 41.493,20.294ZM27.687,41.493L23.99,47.846L20.294,41.493C21.499,41.683 22.733,41.782 23.99,41.782C25.248,41.782 26.482,41.683 27.687,41.493Z"/>
        <path d="M9.001,14.228L7.122,7.122L14.228,9.001C13.242,9.718 12.299,10.521 11.41,11.41C10.521,12.299 9.718,13.242 9.001,14.228ZM33.753,9.001L40.859,7.122L38.98,14.228C38.263,13.242 37.46,12.299 36.571,11.41C35.682,10.521 34.739,9.718 33.753,9.001ZM38.98,33.753L40.859,40.859L33.753,38.98C34.739,38.263 35.682,37.46 36.571,36.571C37.46,35.682 38.263,34.739 38.98,33.753ZM14.228,38.98L7.122,40.859L9.001,33.753C9.718,34.739 10.521,35.682 11.41,36.571C12.299,37.46 13.242,38.263 14.228,38.98Z"/>
        <circle cx="23.99" cy="23.99" r="13.892" style="fill:none;stroke:black;stroke-width:2.77px;"/>
    </g>
    <circle cx="23.99" cy="23.99" r="9.728"/>
</svg>
