<?xml version="1.0" encoding="UTF-8" standalone="no"?>
<!DOCTYPE svg PUBLIC "-//W3C//DTD SVG 1.1//EN" "http://www.w3.org/Graphics/SVG/1.1/DTD/svg11.dtd">
<svg width="48px" height="48px" version="1.1" xmlns="http://www.w3.org/2000/svg" xmlns:xlink="http://www.w3.org/1999/xlink" xml:space="preserve" xmlns:serif="http://www.serif.com/" style="fill-rule:evenodd;clip-rule:evenodd;stroke-linejoin:round;stroke-miterlimit:2;">
    <g id="Dawn-Assembly" serif:id="Dawn Assembly">
        <path d="M8.959,19.642C10.256,12.52 16.497,7.114 23.99,7.114C31.484,7.114 37.725,12.52 39.022,19.642L36.192,19.642C34.937,14.062 29.947,9.888 23.99,9.888C18.034,9.888 13.044,14.062 11.789,19.642L8.959,19.642Z"/>
        <path d="M39.022,27.931C37.725,35.052 31.484,40.458 23.99,40.458C16.497,40.458 10.256,35.052 8.959,27.931L11.789,27.931C13.044,33.511 18.034,37.685 23.99,37.685C29.947,37.685 34.937,33.511 36.192,27.931L39.022,27.931Z"/>
        <path d="M7.914,27.05L0.582,23.809L7.914,20.569L7.914,20.557L7.919,20.567L7.941,20.557L7.941,20.614L8.736,22.289L39.295,22.289L40.09,20.614L40.09,20.557L40.112,20.567L40.117,20.557L40.117,20.569L47.449,23.809L40.117,27.05L40.117,27.062L40.112,27.052L40.09,27.062L40.09,27.005L39.295,25.329L8.736,25.329L7.941,27.005L7.941,27.062L7.919,27.052L7.914,27.062L7.914,27.05Z"/>
    </g>
</svg>
