<?xml version="1.0" encoding="UTF-8" standalone="no"?>
<!DOCTYPE svg PUBLIC "-//W3C//DTD SVG 1.1//EN" "http://www.w3.org/Graphics/SVG/1.1/DTD/svg11.dtd">
<svg width="48px" height="48px" version="1.1" xmlns="http://www.w3.org/2000/svg" xmlns:xlink="http://www.w3.org/1999/xlink" xml:space="preserve" xmlns:serif="http://www.serif.com/" style="fill-rule:evenodd;clip-rule:evenodd;stroke-linejoin:round;stroke-miterlimit:2;">
    <g id="Shattered">
        <path d="M14.85,21.003C15.371,19.34 16.347,17.876 17.632,16.759L19.835,19.232C19.094,19.934 18.546,20.838 18.28,21.855L14.85,21.003ZM19.251,22.096C19.467,21.277 19.907,20.548 20.5,19.979L22.392,22.101C22.226,22.296 22.109,22.533 22.058,22.793L19.251,22.096ZM29.166,22.703C29.036,21.396 28.45,20.222 27.571,19.341L30.12,17.026C31.523,18.354 32.514,20.114 32.877,22.093L29.166,22.703ZM32.904,25.317C32.733,26.343 32.394,27.313 31.916,28.197L28.497,25.949C28.735,25.523 28.917,25.062 29.036,24.576L32.904,25.317ZM28.052,24.387C27.961,24.743 27.828,25.081 27.659,25.398L25.326,23.864L28.052,24.387ZM28.176,22.866L25.046,23.336C25.06,23.254 25.067,23.17 25.067,23.084C25.067,22.668 24.899,22.29 24.627,22.016L26.83,20.014C27.584,20.753 28.081,21.753 28.176,22.866ZM25.624,18.076C25.314,17.957 24.99,17.866 24.656,17.804L25.194,14.595C25.854,14.7 26.49,14.874 27.096,15.109L25.624,18.076ZM24.094,21.16L24.491,18.791C24.726,18.835 24.956,18.898 25.177,18.977L24.094,21.16ZM22.076,32.936C21.496,32.832 20.935,32.674 20.398,32.468L22.041,28.569C22.311,28.65 22.59,28.712 22.875,28.752L22.076,32.936ZM23.063,27.768C22.848,27.74 22.637,27.697 22.433,27.641L22.839,26.677L23.254,26.656L23.259,26.746L23.063,27.768ZM21.003,14.967C21.877,14.56 22.441,14.48 23.729,14.48C23.886,14.48 24.042,14.484 24.197,14.492L23.619,21.567L23.549,21.566C23.349,21.566 23.157,21.605 22.982,21.675L21.003,14.967ZM15.094,27.243C14.664,26.173 14.428,25.005 14.428,23.782C14.428,23.498 14.44,23.218 14.465,22.941L18.102,23.129L18.101,23.259C18.101,24.082 18.28,24.863 18.603,25.566L15.094,27.243ZM19.505,25.135C19.245,24.563 19.101,23.928 19.101,23.259L19.101,23.181L22.051,23.334C22.081,23.513 22.142,23.682 22.229,23.834L19.505,25.135ZM23.888,24.564C24.123,24.51 24.338,24.402 24.518,24.252L26.853,26.481C26.151,27.179 25.222,27.65 24.188,27.773L23.888,24.564ZM24.281,28.769C25.562,28.623 26.712,28.039 27.576,27.172L30.595,30.054C29.095,31.695 27.014,32.797 24.679,33.035L24.281,28.769ZM20.208,26.231L22.703,24.345C22.83,24.43 22.97,24.496 23.12,24.541L21.696,27.365C21.124,27.093 20.618,26.705 20.208,26.231ZM21.245,28.259L19.362,31.995C18.115,31.33 17.037,30.389 16.209,29.254L19.409,26.835C19.911,27.43 20.537,27.917 21.245,28.259Z"/>
        <path d="M10.329,19.884C10.089,20.709 9.924,21.565 9.84,22.445L6.244,22.234C6.339,21.141 6.535,20.077 6.823,19.051L7.088,19.062L10.329,19.884ZM10.947,29.38C11.674,31.036 12.713,32.523 13.989,33.768L11.337,36.207C9.833,34.708 8.6,32.938 7.717,30.977L10.947,29.38ZM37.458,21.283C37.355,20.713 37.217,20.155 37.047,19.612L39.263,15.607C40.082,17.158 40.675,18.846 40.998,20.627L37.458,21.283ZM40.987,26.998C40.361,30.37 38.771,33.404 36.513,35.804L33.883,33.347C35.686,31.433 36.956,29.01 37.451,26.318L40.987,26.998ZM20.527,41.042C18.56,40.679 16.707,39.987 15.028,39.026L16.535,35.736C17.947,36.589 19.523,37.198 21.203,37.505L20.527,41.042ZM18.645,6.978C19.968,6.578 21.356,6.329 22.79,6.254L22.758,9.862C21.689,9.936 20.653,10.13 19.664,10.431L18.645,6.978ZM25.112,37.666C27.404,37.44 29.534,36.659 31.365,35.458L33.255,38.523C30.963,40.008 28.305,40.973 25.447,41.251L25.112,37.666ZM8.719,14.683C9.541,13.331 10.54,12.099 11.683,11.019L14.116,13.673C13.282,14.467 12.545,15.362 11.927,16.34L8.719,14.683ZM26.006,6.376C31.004,7.024 35.345,9.778 38.108,13.718L34.611,15.052C32.413,12.317 29.206,10.426 25.557,9.948L26.006,6.376Z"/>
        <path d="M12.042,3.214L15.559,12.666L17.863,14.049L17.665,11.402L12.042,3.214Z"/>
        <path d="M45.004,11.168L38.325,14.297L37.649,15.771L39.272,15.902L45.004,11.168Z"/>
        <path d="M36.77,3.425L30.779,10.24L30.517,12.807L32.631,11.593L36.77,3.425Z"/>
        <path d="M4.383,12.18L11.017,17.869L12.956,17.596C12.956,17.596 12.523,16.865 12.365,16.643C12.264,16.501 12.377,15.741 12.377,15.741L4.383,12.18Z"/>
        <path d="M43.883,37.68L36.671,30.479L33.89,30.509L35.428,33.083L43.883,37.68Z"/>
        <path d="M4.888,36.748L12.101,32.068L12.958,29.711L10.631,30.094L4.888,36.748Z"/>
        <path d="M12.04,45.372L17.958,36.476L17.698,34.057L15.546,35.237L12.04,45.372Z"/>
        <path d="M36.834,46.03L32.203,34.863L29.684,33.169L29.761,36.323L36.834,46.03Z"/>
    </g>
</svg>
